<svg xmlns="http://www.w3.org/2000/svg" viewBox="0 0 188.17 180.96"><title>pdxkbc_small</title><path d="M123,97l-2.89-2.89h-55V181h55l2.89-2.9V141.58l-5-2,5-2.4Zm-14.48,69.5H79.61V138.82l29,12.45h0Zm0-31L79.61,123V108.56h29Z"/><polygon points="188.17 37.65 188.17 0 188.17 0 173.69 0 173.69 0 173.69 28.96 159.21 35.34 144.74 28.96 144.74 0 144.74 0 130.26 0 130.26 37.65 144.74 43.44 130.26 49.23 130.26 57.07 130.26 58.15 130.26 86.87 130.26 86.87 130.26 86.87 144.74 86.87 144.74 86.87 144.74 57.55 159.21 51.17 173.69 57.55 173.69 63.71 173.69 86.87 173.69 86.87 188.17 86.87 188.17 86.87 188.17 86.87 188.17 49.23 173.69 43.44 188.17 37.65"/><polygon points="43.44 57.3 43.44 78.53 43.44 92.52 24.17 101.02 14.48 96.75 14.48 94.09 0 94.09 0 166.48 0 180.96 14.48 180.96 14.48 112.68 43.44 125.34 43.44 163.58 43.44 166.48 43.44 180.96 57.91 180.96 57.91 115.91 57.91 115.53 42.33 108.83 57.91 101.96 57.91 50.92 43.44 57.3"/><path d="M120.15,0h-55V86.87h55L123,84V2.9ZM108.56,72.39H79.61V14.48h29Z"/><path d="M0,0V86.87H14.48v-24L57.92,43.7V2.9L55,0ZM43.44,34.27,14.48,47V14.48h29Z"/><path d="M133.15,94.09,130.26,97v84h57.91V157.79H173.69v8.69h-29V108.56h29v8.69h14.48V94.09ZM130.26,181v-2.9l2.89,2.9Z"/></svg>